<?xml version="1.0" standalone="no"?>
<!DOCTYPE svg PUBLIC "-//W3C//DTD SVG 20010904//EN"
 "http://www.w3.org/TR/2001/REC-SVG-20010904/DTD/svg10.dtd">
<svg version="1.0" xmlns="http://www.w3.org/2000/svg"
 width="16.000000pt" height="16.000000pt" viewBox="0 0 16.000000 16.000000"
 preserveAspectRatio="xMidYMid meet">
<metadata>
Created by potrace 1.11, written by Peter Selinger 2001-2013
</metadata>
<g transform="translate(0.000000,16.000000) scale(0.002222,-0.002222)"
fill="#000000" stroke="none">
<path d="M3335 7192 c-22 -2 -44 -7 -48 -11 -20 -20 -44 -189 -41 -286 9 -252
7 -427 -11 -830 -2 -49 -7 -180 -11 -290 -3 -110 -8 -229 -9 -265 -2 -36 -4
-99 -5 -140 -2 -41 -8 -86 -14 -100 -18 -45 -75 -124 -131 -184 -237 -252
-380 -573 -421 -941 -4 -33 -7 -915 -8 -1960 -1 -1806 0 -1903 17 -1970 25
-94 48 -143 86 -182 l31 -33 830 0 829 0 27 27 c32 34 70 113 88 184 12 44 14
352 15 1773 1 947 1 1782 1 1856 1 358 -29 543 -127 779 -52 127 -151 296
-214 366 -136 153 -198 232 -217 280 -13 31 -15 69 -27 410 -3 99 -8 230 -10
290 -3 61 -7 182 -10 270 -3 88 -8 207 -10 265 -7 195 -6 285 3 310 10 26 7
203 -4 230 -3 8 -8 33 -10 55 -9 76 -22 95 -68 97 -84 3 -492 3 -531 0z"/>
</g>
</svg>
